Coordinates
version=1
nRows=4
nColumns=114
inDegrees=yes

Units are S.I. units (second, meters, Newtons, ...)
If the header above contains a line with 'inDegrees', this indicates whether rotational values are in degrees (yes) or radians (no).

endheader 
time	pelvis_tilt	pelvis_list	pelvis_rotation	pelvis_tx	pelvis_ty	pelvis_tz	hip_flexion_l	hip_adduction_l	hip_rotation_l	hip_flexion_r	hip_adduction_r	hip_rotation_r	knee_angle_l	knee_angle_r	ankle_angle_l	ankle_angle_r	subtalar_angle_l	subtalar_angle_r	mtp_angle_l	mtp_angle_r	lumbar_extension	lumbar_bending	lumbar_rotation	arm_flex_l	arm_add_l	arm_rot_l	arm_flex_r	arm_add_r	arm_rot_r	elbow_flex_l	elbow_flex_r	pro_sup_l	pro_sup_r	addbrev_l/activation	addlong_l/activation	addmagDist_l/activation	addmagIsch_l/activation	addmagMid_l/activation	addmagProx_l/activation	bflh_l/activation	bfsh_l/activation	edl_l/activation	ehl_l/activation	fdl_l/activation	fhl_l/activation	gaslat_l/activation	gasmed_l/activation	glmax1_l/activation	glmax2_l/activation	glmax3_l/activation	glmed1_l/activation	glmed2_l/activation	glmed3_l/activation	glmin1_l/activation	glmin2_l/activation	glmin3_l/activation	grac_l/activation	iliacus_l/activation	perbrev_l/activation	perlong_l/activation	piri_l/activation	psoas_l/activation	recfem_l/activation	sart_l/activation	semimem_l/activation	semiten_l/activation	soleus_l/activation	tfl_l/activation	tibant_l/activation	tibpost_l/activation	vasint_l/activation	vaslat_l/activation	vasmed_l/activation	addbrev_r/activation	addlong_r/activation	addmagDist_r/activation	addmagIsch_r/activation	addmagMid_r/activation	addmagProx_r/activation	bflh_r/activation	bfsh_r/activation	edl_r/activation	ehl_r/activation	fdl_r/activation	fhl_r/activation	gaslat_r/activation	gasmed_r/activation	glmax1_r/activation	glmax2_r/activation	glmax3_r/activation	glmed1_r/activation	glmed2_r/activation	glmed3_r/activation	glmin1_r/activation	glmin2_r/activation	glmin3_r/activation	grac_r/activation	iliacus_r/activation	perbrev_r/activation	perlong_r/activation	piri_r/activation	psoas_r/activation	recfem_r/activation	sart_r/activation	semimem_r/activation	semiten_r/activation	soleus_r/activation	tfl_r/activation	tibant_r/activation	tibpost_r/activation	vasint_r/activation	vaslat_r/activation	vasmed_r/activation	
          0.50000000	         -7.72091023	          2.25553544	        -41.43178562	          1.13048038	          0.93359037	          0.21793583	          8.59631968	         -3.63213414	          2.09716457	         11.43183596	         -4.64456938	        -16.11122251	         24.59976419	         30.90805890	         -3.45615409	        -14.30430325	        -15.54197620	         -6.48460751	        -25.10949563	          4.99980948	        -17.46784500	         -0.15030115	          7.42175452	         13.85858654	        -14.62308079	         16.73576375	        -11.52746526	        -27.72949339	          6.73329738	         81.97188876	        106.07465000	         93.71548173	         87.63697078	          0.01015400	          0.01290362	          0.01491219	          0.01454986	          0.01197576	          0.01023363	          0.01699049	          0.12360954	          0.18295474	          0.01090840	          0.01078511	          0.01051411	          0.01728176	          0.01726023	          0.01324033	          0.01411355	          0.01436312	          0.01490634	          0.01362501	          0.01235857	          0.01876943	          0.01266000	          0.01181465	          0.01210338	          0.01009818	          0.05214427	          0.15525838	          0.01103100	          0.01008501	          0.01000724	          0.01032776	          0.21446358	          0.04908526	          0.01239814	          0.01008145	          0.02135398	          0.01013384	          0.01006093	          0.01001948	          0.01004335	          0.07938036	          0.07346822	          0.04084943	          0.02962109	          0.06101156	          0.06543593	          0.03273269	          0.01004791	          0.15487421	          0.06501726	          0.01225337	          0.15986513	          0.18542905	          0.15302675	          0.03105967	          0.02999982	          0.03548793	          0.01089815	          0.01260765	          0.01409068	          0.01029014	          0.01022673	          0.01548587	          0.01737124	          0.01002330	          0.22944586	          0.16905458	          0.09368550	          0.01002804	          0.06973051	          0.01002958	          0.22203179	          0.01776465	          0.12762920	          0.01003334	          0.01000887	          0.12794915	          0.02479198	          0.02470777	          0.17732789	
          0.51000000	         -6.56047666	          3.22702502	        -41.33488984	          1.13032832	          0.93714606	          0.21876313	          9.82959000	         -1.94662333	          2.31911447	          9.08507481	         -5.80877892	        -18.42478886	         27.17111189	         27.89743884	         -3.27547571	        -12.80507376	        -17.19636734	         -6.07132294	        -22.33728650	          2.72119446	        -17.89008488	         -1.63331176	          8.02644448	         10.98813039	        -15.64165580	         18.77849077	        -16.19736921	        -26.34183831	          6.79702322	         80.69894691	        102.35343006	         92.61109193	         87.93726666	          0.12136384	          0.25326751	          0.01254381	          0.01217904	          0.02611782	          0.06191902	          0.01417662	          0.10356544	          0.20064316	          0.03865365	          0.01289796	          0.01208706	          0.01448983	          0.01443288	          0.01108833	          0.01178786	          0.01200386	          0.01248531	          0.01143876	          0.01037896	          0.01630969	          0.01153001	          0.01048298	          0.09662144	          0.22307323	          0.04373651	          0.12946783	          0.01009317	          0.01897242	          0.09041994	          0.04732268	          0.17872640	          0.04093698	          0.01078569	          0.01304966	          0.18520518	          0.01187280	          0.01009643	          0.01003065	          0.01006842	          0.06621862	          0.06211732	          0.03405950	          0.02470150	          0.05086496	          0.05465314	          0.02729615	          0.01380022	          0.17454659	          0.08579494	          0.01030277	          0.13324244	          0.15452913	          0.12752447	          0.02592556	          0.02502087	          0.02958866	          0.01021246	          0.01105856	          0.01208888	          0.01052846	          0.01126914	          0.01598292	          0.01730854	          0.02328804	          0.19124047	          0.14088964	          0.07824764	          0.11304699	          0.05839297	          0.01709976	          0.18503712	          0.01484317	          0.10635828	          0.01375832	          0.17445052	          0.10664740	          0.02067435	          0.02059446	          0.14778053	
          0.52000000	         -5.60988510	          4.43276279	        -41.07224232	          1.12998965	          0.93961815	          0.21946214	         11.56739917	         -0.09236751	          2.95771099	          7.49818160	         -7.01172914	        -20.26589542	         30.23465394	         25.52949050	         -1.55475845	        -11.18950918	        -19.16248294	         -5.63016691	        -19.64745185	          1.53567568	        -17.92186225	         -3.14513205	          7.62082342	          6.67009414	        -16.72347308	         17.56550081	        -18.19039469	        -25.67011003	          9.21935394	         79.63915024	         97.32772338	         91.97677661	         85.31237612	          0.13762589	          0.21396645	          0.01053863	          0.01020095	          0.02211443	          0.10422238	          0.01183209	          0.08929505	          0.20611261	          0.12340936	          0.01124872	          0.01046785	          0.01210263	          0.01204229	          0.01010238	          0.01004693	          0.01007072	          0.01048426	          0.01020751	          0.01018205	          0.01395879	          0.01426420	          0.01318835	          0.08783629	          0.27241813	          0.07172025	          0.10796717	          0.02107903	          0.42641455	          0.12758132	          0.19964619	          0.14894663	          0.03414138	          0.01002590	          0.05818653	          0.27183500	          0.01024946	          0.01005709	          0.01001835	          0.01004100	          0.05521956	          0.05180846	          0.02839822	          0.02060145	          0.04240404	          0.04560312	          0.02276815	          0.01182248	          0.14566896	          0.07194951	          0.02531317	          0.11106008	          0.12877835	          0.10627170	          0.02164824	          0.02087238	          0.02467019	          0.01074133	          0.01032666	          0.01034389	          0.01191476	          0.01098983	          0.01412746	          0.01456658	          0.05054503	          0.15941107	          0.11741765	          0.07265440	          0.09505968	          0.08149079	          0.01479350	          0.15420732	          0.01240237	          0.08863554	          0.05158206	          0.25688279	          0.08890188	          0.01724254	          0.01716653	          0.12316797	
          0.53000000	         -4.82023604	          5.73185223	        -40.70826815	          1.12916249	          0.94117248	          0.21977173	         13.70227576	          1.76594751	          3.66743894	          6.42001621	         -8.16625863	        -21.69523129	         33.57024950	         23.56915563	          1.10015750	         -9.53319176	        -21.00097851	         -5.20213609	        -17.30138494	          0.57149988	        -17.83244073	         -4.64776815	          6.84752558	          2.43336052	        -17.69449885	         15.25961897	        -18.78208518	        -25.05233141	         11.78801753	         78.21924838	         91.75691421	         91.69781836	         81.97799265	          0.11625664	          0.17865232	          0.01011181	          0.01006306	          0.01914370	          0.10431136	          0.01005351	          0.07476334	          0.17201322	          0.10344217	          0.01017446	          0.01007388	          0.01010888	          0.01004915	          0.01007488	          0.01003439	          0.01003573	          0.01011117	          0.01015388	          0.01013501	          0.01193356	          0.01243193	          0.01195633	          0.10764189	          0.22708078	          0.06237353	          0.09000151	          0.03884705	          0.35538895	          0.12582150	          0.16652927	          0.12413145	          0.02849551	          0.01000685	          0.04854054	          0.32347720	          0.01003736	          0.01003421	          0.01001121	          0.01002498	          0.04603527	          0.04318632	          0.02367771	          0.01718209	          0.03534896	          0.03803986	          0.01903112	          0.01108260	          0.12149422	          0.09798361	          0.03919872	          0.09256356	          0.10735560	          0.08859395	          0.01811873	          0.01742426	          0.02057146	          0.01016338	          0.04628791	          0.03961398	          0.01028176	          0.05584928	          0.05766783	          0.01222816	          0.04220153	          0.13289032	          0.09786371	          0.09969214	          0.07933141	          0.06791545	          0.10950699	          0.14438297	          0.01039095	          0.08279527	          0.04346229	          0.21408964	          0.07409525	          0.01437838	          0.01430852	          0.10264695	
